# xmcd CD database file
# Copyright (C) 1993-1998 Ti Kan
#
# Track frame offsets:
#	150
#	23490
#	46146
#	68759
#	89249
#	113192
#	136686
#	160766
#	183073
#	202508
#	224599
#	246807
#	268548
#	290985
#	312244
#
# Disc length: 4475 seconds
#
# Revision: 1
# Processed by: cddbd v1.4b41PL1 Copyright (c) Steve Scherf et al.
# Submitted via: CDValet v3.31 - Copyright (c) 1997 Greg Leichner
#
DISCID=d011790f
DTITLE=Pasión Latina - Eddie Santiago, Frankie Ruiz, Lalo Rodrí
DTITLE=guez
DYEAR=1900
DGENRE=
TTITLE0=Ven Devórame Otra Vez
TTITLE1=Tu Me Quemas
TTITLE2=Tu Con Él
TTITLE3=Después De Hacer El Amor
TTITLE4=Antídoto y Veneno
TTITLE5=Lo Dudo
TTITLE6=Pero Llegaste Tu
TTITLE7=Lluvia
TTITLE8=Que Se Mueran De Envidia
TTITLE9=Sí, Te Mentí
TTITLE10=Todo Empezó
TTITLE11=Desnúdate Mujer
TTITLE12=Lo Que Me Lastima
TTITLE13=Mía
TTITLE14=Por Haberte Amado Tanto
EXTD=
EXTT0=
EXTT1=
EXTT2=
EXTT3=
EXTT4=
EXTT5=
EXTT6=
EXTT7=
EXTT8=
EXTT9=
EXTT10=
EXTT11=
EXTT12=
EXTT13=
EXTT14=
PLAYORDER=
